<?xml version="1.0" encoding="utf-8"?>
<svg width="490px" height="128px" viewBox="0 0 490 128" version="1.1" xmlns:xlink="http://www.w3.org/1999/xlink" xmlns="http://www.w3.org/2000/svg">
  <desc>Created with Lunacy</desc>
  <g id="LitCodes;">
    <g id="Lit" fill="#FFDD71">
      <path d="M67.016 22.24Q71.048 22.336 73.928 25.216Q76.808 28.096 76.808 32.128Q76.808 36.16 73.928 39.04Q71.048 41.92 67.016 41.92Q62.984 41.92 60.104 39.04Q57.224 36.16 57.224 32.128Q57.224 28.057 60.104 25.1485Q62.984 22.24 67.016 22.24ZM24.96 27.808L24.96 84.256L47.52 84.256L47.52 100.192L6.144 100.192L6.144 27.808L24.96 27.808ZM111.376 100.192L111.376 65.344L121.264 65.344L121.264 50.944L111.376 50.944L111.376 36.16L93.904 36.16L93.904 50.944L88.24 50.944L88.24 65.344L93.904 65.344L93.904 100.192L111.376 100.192ZM75.752 50.944L75.752 100.192L58.28 100.192L58.28 50.944L75.752 50.944Z" />
    </g>
    <g id="Codes" fill="#FFFFFF">
      <path d="M305.8 94.72L305.8 100.192L323.272 100.192L323.272 20.512L305.8 20.512L305.8 55.84Q303.4 52.96 299.8 51.376Q296.2 49.792 292.456 49.504Q291.976 49.408 291.496 49.408L290.536 49.408Q279.592 49.408 272.728 57.232Q265.864 65.056 265.864 75.616Q265.864 86.176 272.824 94Q279.784 101.824 290.728 101.824L291.496 101.824Q291.88 101.824 292.264 101.728Q296.2 101.536 299.848 99.856Q303.496 98.176 305.608 94.72L305.8 94.72ZM183.96 29.632L183.96 52.096Q181.08 48.256 176.664 46.24Q172.248 44.224 167.448 44.224Q158.808 44.224 153.48 50.032Q148.152 55.84 148.152 64.288Q148.152 72.832 153.576 78.4Q159 83.968 167.736 83.968Q172.344 83.968 176.664 81.904Q180.984 79.84 183.96 76.288L183.96 98.752Q181.368 99.616 179.064 100.24Q176.76 100.864 174.552 101.344Q172.824 101.728 171.048 101.92Q169.272 102.112 167.352 102.112Q159.768 102.112 152.808 99.376Q145.848 96.64 140.184 91.552Q134.232 86.176 131.4 79.216Q128.568 72.256 128.568 64.192Q128.568 56.8 131.304 49.888Q134.04 42.976 139.224 37.696Q144.408 32.416 151.416 29.296Q158.424 26.176 165.912 25.984L166.776 25.984Q171.288 25.984 175.56 26.944Q179.832 27.904 183.96 29.632ZM226.208 49.312Q238.112 49.408 246.992 56.272Q255.872 63.136 255.872 75.712Q255.872 88.192 246.992 95.008Q238.112 101.824 226.208 101.824Q214.4 101.824 205.472 95.056Q196.544 88.288 196.544 75.712Q196.544 63.136 205.424 56.272Q214.304 49.408 226.208 49.408L226.208 49.312ZM389.808 76.672L389.808 78.496L353.04 78.496Q353.04 83.872 355.824 86.704Q358.608 89.536 363.984 89.536Q366.768 89.536 368.832 88.48Q370.896 87.424 372.336 85.024L389.136 85.024Q387.024 93.8065 379.776 97.8153Q372.528 101.824 364.08 101.824Q351.888 101.824 343.728 95.152Q335.568 88.48 335.568 75.712Q335.568 63.424 343.2 56.416Q350.832 49.408 362.832 49.408Q375.696 49.408 382.752 56.8Q389.781 64.1638 389.808 76.672ZM441.135 52.5577L441.176 52.48L441.176 52.576Q441.154 52.5663 441.135 52.5577ZM435.32 63.616L441.135 52.5577Q437.314 50.8442 433.256 50.128Q429.176 49.408 424.952 49.408L424.376 49.408Q416.504 49.504 409.88 53.728Q403.256 57.952 403.256 66.88Q403.256 73.504 406.664 76.144Q410.072 78.784 414.2 79.84Q415.256 80.128 416.264 80.368Q417.272 80.608 418.328 80.8Q421.112 81.376 423.128 82.288Q425.144 83.2 425.144 85.312Q425.144 86.848 423.992 87.712Q422.84 88.576 421.4 88.864Q420.92 88.96 420.488 89.008Q420.056 89.056 419.672 89.056Q418.328 89.056 416.888 88.768Q415.448 88.48 413.912 88Q411.704 87.232 409.592 86.224Q407.48 85.216 405.848 83.968L399.512 96.256Q404.024 98.944 409.064 100.384Q414.104 101.824 419.384 101.824L420.44 101.824Q428.792 101.536 435.704 97.264Q442.616 92.992 442.616 83.584Q442.616 76.768 438.536 73.504Q434.456 70.24 428.312 68.992Q427.64 68.896 426.776 68.752Q425.912 68.608 424.952 68.32Q423.224 67.936 421.832 67.12Q420.44 66.304 420.44 64.672Q420.44 63.328 421.496 62.608Q422.552 61.888 423.896 61.6Q424.376 61.408 424.904 61.36Q425.432 61.312 425.912 61.312Q426.872 61.312 427.88 61.456Q428.888 61.6 429.944 61.792Q431.384 62.08 432.776 62.56Q434.168 63.04 435.32 63.616ZM353.328 68.416L373.584 68.416Q372.912 64.96 370.08 62.848Q367.248 60.736 363.696 60.736Q359.856 60.736 356.976 62.68Q354.096 64.624 353.328 68.416ZM226.208 64.48Q220.928 64.576 217.952 67.888Q214.976 71.2 214.976 75.712Q214.976 80.416 217.952 83.584Q220.928 86.752 226.208 86.752Q231.584 86.752 234.512 83.5705Q237.44 80.389 237.44 75.664Q237.44 71.1325 234.512 67.8062Q231.584 64.48 226.208 64.48ZM286.888 67.888Q289.864 64.576 295.144 64.48Q300.52 64.48 303.448 67.8062Q306.376 71.1325 306.376 75.664Q306.376 80.389 303.448 83.5705Q300.52 86.752 295.144 86.752Q289.864 86.752 286.888 83.584Q283.912 80.416 283.912 75.712Q283.912 71.2 286.888 67.888Z" />
    </g>
    <g id=";" fill="#FFDD71">
      <path d="M464.512 81.856L480.928 81.856L463.264 113.728L452.032 113.728L464.512 81.856ZM472.192 47.296Q476.896 47.392 480.16 50.656Q483.424 53.92 483.424 58.624Q483.424 63.232 480.16 66.544Q476.896 69.856 472.192 69.856Q467.488 69.856 464.224 66.544Q460.96 63.232 460.96 58.624Q460.96 53.92 464.224 50.656Q467.488 47.392 472.192 47.392L472.192 47.296Z" />
    </g>
  </g>
</svg>